# xmcd
#
# Track frame offsets:
#	150
#	21186
#	31888
#	53742
#	76108
#	91241
#	108685
#	127148
#	153658
#	187621
#
# Disc length: 2858 seconds
#
# Revision: 1
# Processed by: cddbd v1.5.2PL0 Copyright (c) Steve Scherf et al.
# Submitted via: audiograbber 1.83.01
#
DISCID=740b280a
DTITLE=Bob Dylan - Rolling Stone 11/17 Deep Dylan
DYEAR=2017
DGENRE=Pop
TTITLE0=Drink´s Song
TTITLE1=Ballad for a Friend
TTITLE2=Tell me, Momma (Live from Manchester May 17, 1966)
TTITLE3=She´s your Lover now (Take 6, Rehearsal)
TTITLE4=All you have to do is dream (Take 2)
TTITLE5=Sign on the Window (with Orcestral Overdubs)
TTITLE6=One more Cup of Coffee (Live)
TTITLE7=Blind Willie McTell
TTITLE8=Red River Shore
TTITLE9=Caribbean Wind (Rehearsal with Pedal Steel)
EXTD=Grabbed by MATZ
EXTT0=
EXTT1=
EXTT2=
EXTT3=
EXTT4=
EXTT5=
EXTT6=
EXTT7=
EXTT8=
EXTT9=
PLAYORDER=
